<svg xmlns="http://www.w3.org/2000/svg" width="55.737" height="67.194" viewBox="0 0 55.737 67.194">
  <path id="Cat" d="M41.174,67.194H23.265s.025-5.313,0-8.96C11,60.873,7.586,51.515,7.586,51.515A27.72,27.72,0,0,0,3.106,44.8c-4.479-2.661,0-2.24,0-2.24,4.479,0,6.72,4.479,6.72,4.479,3.931,6.677,10.926,5.6,13.439,4.479,0-2.24.981-5.623,2.24-6.72C15.721,43.7,7.576,38.073,7.576,26.878S9.825,13.439,12.065,11.2c-.454-1.1-2.327-5.185.07-11.2,0,0,4.4,0,8.881,6.72,2.22-2.22,8.96-2.24,11.2-2.24s8.976.02,11.2,2.24C47.893,0,52.3,0,52.3,0c2.4,6.014.522,10.094.069,11.2,2.24,2.24,4.479,4.479,4.479,15.679S48.718,43.7,38.934,44.8c1.258,1.093,2.24,4.95,2.24,6.72Z" transform="translate(-1.115)" fill="#b0b2c3" fill-rule="evenodd"/>
</svg>
