<svg id="iconfinder_37-behance_104465" xmlns="http://www.w3.org/2000/svg" width="77.743" height="49.23" viewBox="0 0 77.743 49.23">
  <path id="Path_52" data-name="Path 52" d="M34.878,37.919s7.354-.547,7.354-9.173S36.215,15.907,28.591,15.907H3.5V64.119H28.591S43.9,64.6,43.9,49.887C43.9,49.886,44.573,37.919,34.878,37.919ZM14.557,24.474H28.59S32,24.474,32,29.488s-2.007,5.745-4.28,5.745H14.56V24.474ZM27.881,55.548c-.371.009-.685,0-.9,0H14.557V42.666H28.591s5.082-.068,5.082,6.618C33.673,54.925,29.877,55.51,27.881,55.548Z" transform="translate(-3.5 -15.907)" fill="#b0b2c3"/>
  <path id="Path_53" data-name="Path 53" d="M49.072,23.746c-18.539,0-18.524,18.524-18.524,18.524S29.277,60.7,49.072,60.7c0,0,16.5.942,16.5-12.822H57.084s.281,5.185-7.731,5.185c0,0-8.483.564-8.483-8.39H65.852S68.584,23.746,49.072,23.746Zm-8.3,14.494s1.036-7.427,8.483-7.427S56.61,38.24,56.61,38.24Z" transform="translate(11.76 -11.482)" fill="#b0b2c3"/>
  <rect id="Rectangle_54" data-name="Rectangle 54" width="19.887" height="5.938" transform="translate(50.46 2.838)" fill="#b0b2c3"/>
</svg>
