<svg xmlns="http://www.w3.org/2000/svg" width="1679.94" height="131.76" viewBox="0 0 1679.94 131.76">
  <path id="Path_16" data-name="Path 16" d="M10.26,174h62.1c42.12,0,71.1-23.94,71.1-63s-28.98-63-71.1-63H10.26Zm42.48-33.12V81.12H70.56c17.82,0,30.06,10.62,30.06,29.88s-12.24,29.88-30.06,29.88ZM262.26,174h43.92L251.1,48H209.34L154.26,174h43.2l8.46-21.96H253.8Zm-44.64-52.56,12.24-31.68,12.24,31.68ZM399.24,174H444.6l-26.46-38.88c15.12-7.74,23.76-21.42,23.76-39.6C441.9,66.36,419.58,48,384.48,48H323.82V174H366.3V142.32h11.52Zm-.18-78.48c0,9.18-5.58,14.76-17.28,14.76H366.3V80.76h15.48C393.48,80.76,399.06,86.34,399.06,95.52ZM515.7,176.88c39.06,0,58.68-19.44,58.68-42.48,0-46.44-69.66-33.84-69.66-48.96,0-4.32,3.96-7.92,16.38-7.92,10.98,0,22.68,3.06,35.1,9.36L568.98,56.1c-13.14-7.38-30.6-10.98-47.52-10.98-39.06,0-58.68,19.08-58.68,42.48,0,46.98,69.66,34.2,69.66,50.04,0,4.32-4.32,6.84-16.38,6.84a86.445,86.445,0,0,1-41.58-11.52L460.8,163.92C473.4,171.66,494.64,176.88,515.7,176.88ZM679.5,48V92.64H640.26V48H597.78V174h42.48V127.56H679.5V174h42.48V48ZM847.62,174h43.92L836.46,48H794.7L739.62,174h43.2l8.46-21.96h47.88Zm-44.64-52.56,12.24-31.68,12.24,31.68ZM991.98,48v57.24L944.1,48H909.18V174h41.4V116.76L998.46,174h34.92V48ZM1129.5,174h62.1c42.12,0,71.1-23.94,71.1-63s-28.98-63-71.1-63h-62.1Zm42.48-33.12V81.12h17.82c17.82,0,30.06,10.62,30.06,29.88s-12.24,29.88-30.06,29.88ZM1381.5,174h43.92L1370.34,48h-41.76L1273.5,174h43.2l8.46-21.96h47.88Zm-44.64-52.56,12.24-31.68,12.24,31.68ZM1528.74,48l-30.78,73.62L1467.9,48h-45.72l53.28,126h41.76L1570.5,48Zm98.46,93.96V125.4h53.28V94.8H1627.2V80.04h60.66V48H1585.44V174H1690.2V141.96Z" transform="translate(-10.26 -45.12)" fill="#fff" opacity="0.03"/>
</svg>
