<svg id="Layer_2" data-name="Layer 2" xmlns="http://www.w3.org/2000/svg" width="60.575" height="60.529" viewBox="0 0 60.575 60.529">
  <g id="Icon" transform="translate(0 0)">
    <path id="Path_54" data-name="Path 54" d="M17.45,14.558A80.67,80.67,0,0,1,27.658,31.12a29.846,29.846,0,0,0,6.3-19.36,27.3,27.3,0,0,0-16.51,2.8Z" transform="translate(26.598 17.471)" fill="#b0b2c3"/>
    <path id="Path_55" data-name="Path 55" d="M.33,22.264A30.249,30.249,0,0,0,23.547,44.95,32.775,32.775,0,0,1,36,15.986c-2.9-3.3-4.414-4.739-5.849-6.126A32.593,32.593,0,0,1,.33,22.264Z" transform="translate(0.563 15.011)" fill="#b0b2c3"/>
    <path id="Path_56" data-name="Path 56" d="M5.07,5.529a87.622,87.622,0,0,1,16.814,11.5A27.3,27.3,0,0,0,24.4.06,29.947,29.947,0,0,0,5.07,5.529Z" transform="translate(7.771 0.006)" fill="#b0b2c3"/>
    <path id="Path_57" data-name="Path 57" d="M.037,26.574A27.552,27.552,0,0,0,26.963,15.861,81.951,81.951,0,0,0,8.61,3.61,30,30,0,0,0,.037,26.574Z" transform="translate(0.024 5.505)" fill="#b0b2c3"/>
    <path id="Path_58" data-name="Path 58" d="M11.761,39.527a30.047,30.047,0,0,0,21.2-7.835,75.952,75.952,0,0,0-10.738-17.9A27.5,27.5,0,0,0,11.761,39.527Z" transform="translate(17.516 20.987)" fill="#b0b2c3"/>
    <path id="Path_59" data-name="Path 59" d="M13.28,20a83.335,83.335,0,0,1,7.235,7.563,32.776,32.776,0,0,1,19.132-4.008A30.249,30.249,0,0,0,16.96.34,32.291,32.291,0,0,1,13.28,20Z" transform="translate(20.257 0.533)" fill="#b0b2c3"/>
  </g>
</svg>
