<svg id="iconfinder_social-linkedin_216394" xmlns="http://www.w3.org/2000/svg" width="61.113" height="60.893" viewBox="0 0 61.113 60.893">
  <g id="Group_39" data-name="Group 39" transform="translate(0.217 17.397)">
    <path id="Path_48" data-name="Path 48" d="M18.049,52.5H5V9H18.049Zm47.844,0H52.844V29.26c0-6.055-2.157-9.068-6.433-9.068-3.384,0-5.537,1.692-6.616,5.067V52.5H26.747s.174-39.145,0-43.5h10.3l.8,8.7h.27a14.523,14.523,0,0,1,12.814-7.3c4.458,0,8.062,1.239,10.817,4.354,2.771,3.118,4.15,7.3,4.15,13.179Z" transform="translate(-5 -9)" fill="#b0b2c3"/>
  </g>
  <g id="Group_40" data-name="Group 40" transform="translate(0 0)">
    <ellipse id="Ellipse_1" data-name="Ellipse 1" cx="6.741" cy="6.524" rx="6.741" ry="6.524" transform="translate(0 0)" fill="#b0b2c3"/>
  </g>
</svg>
