<svg xmlns="http://www.w3.org/2000/svg" width="143" height="108" viewBox="0 0 143 108">
  <g id="logo" transform="translate(-130)">
    <path id="Path_15" data-name="Path 15" d="M0,0H143V90a18,18,0,0,1-18,18H18A18,18,0,0,1,0,90Z" transform="translate(130)" opacity="0.19"/>
    <g id="Group_1" data-name="Group 1" transform="translate(166.672 8)">
      <path id="Path_14" data-name="Path 14" d="M6.72,0H25.6C40,0,49.792-9.088,49.792-22.4S40-44.8,25.6-44.8H6.72Zm6.4-5.568V-39.232h12.1c11.072,0,18.176,6.784,18.176,16.832S36.288-5.568,25.216-5.568Z" transform="translate(0.328 62)" fill="#fff"/>
      <path id="Path_13" data-name="Path 13" d="M6.72-46H25.6C40-46,49.792-36.912,49.792-23.6S40-1.2,25.6-1.2H6.72Zm6.4,5.568V-6.768h12.1c11.072,0,18.176-6.784,18.176-16.832s-7.1-16.832-18.176-16.832Z" transform="translate(70.328 31) rotate(180)" fill="#fff" opacity="0.87"/>
    </g>
  </g>
</svg>
