<svg xmlns="http://www.w3.org/2000/svg" width="83.089" height="94.307" viewBox="0 0 83.089 94.307">
  <path id="XMLID_107_" d="M19.22,0a1.419,1.419,0,0,0-1.435,1.577l7.307,81.955a2.453,2.453,0,0,0,1.659,1.992l31.008,8.609a6.724,6.724,0,0,0,3.038,0L91.9,85.51a2.453,2.453,0,0,0,1.659-1.99l7.3-81.943A1.419,1.419,0,0,0,99.421,0ZM85.3,18.8c-.068.769-.189,2.1-.265,2.978l-.193,2.15c-.077.864-.187,2.1-.245,2.742s-.114,1.174-.123,1.174H46.13A1.419,1.419,0,0,0,44.7,29.416l.676,7.549a1.752,1.752,0,0,0,1.717,1.577H82.134a1.263,1.263,0,0,1,1.277,1.4c-.07.769-.191,2.1-.268,2.978L80.972,67.229c-.077.864-.175,1.966-.217,2.453s-.762,1.07-1.6,1.3l-18.321,5.08L59.3,76.49c-.012,0-.7-.184-1.542-.417l-18.34-5.08A2.453,2.453,0,0,1,37.756,69L36.575,55.751a1.419,1.419,0,0,1,1.437-1.577h7.311a1.752,1.752,0,0,1,1.717,1.577l.462,5.187a2.432,2.432,0,0,0,1.661,1.98l8.584,2.316,1.528.412,1.528-.412L69.4,62.911a2.433,2.433,0,0,0,1.663-1.98l.932-10.392a1.419,1.419,0,0,0-1.435-1.577H37.542a1.752,1.752,0,0,1-1.715-1.577L33.539,21.765c-.077-.864-.2-2.2-.265-2.978a1.349,1.349,0,0,1,1.451-1.4H83.849A1.349,1.349,0,0,1,85.3,18.8Z" transform="translate(-17.776 0)" fill="#ff5722"/>
</svg>
